<svg version="1.1" id="Layer_1" xmlns="http://www.w3.org/2000/svg" xmlns:xlink="http://www.w3.org/1999/xlink" x="0px" y="0px"
	 width="100%" viewBox="0 0 820 820" enable-background="new 0 0 820 820" xml:space="preserve">
<path fill="#000000" opacity="1.000000" stroke="none" 
	d="
M456.000000,821.000000 
	C304.000031,821.000000 152.500092,821.000000 1.000102,821.000000 
	C1.000068,547.666809 1.000068,274.333588 1.000034,1.000285 
	C274.333130,1.000190 547.666260,1.000190 820.999512,1.000095 
	C820.999695,274.333038 820.999695,547.666077 820.999878,820.999573 
	C699.500000,821.000000 578.000000,821.000000 456.000000,821.000000 
M625.037842,398.500000 
	C625.050781,332.510406 624.981323,266.520569 625.176758,200.531509 
	C625.202332,191.890381 622.059692,186.016281 614.545959,181.820892 
	C600.296021,173.864395 586.213074,165.605606 572.129333,157.355377 
	C521.969116,127.971802 471.827362,98.556717 421.706879,69.105453 
	C414.373779,64.796455 407.379517,64.949165 400.050354,69.293427 
	C369.676483,87.297104 339.206116,105.137924 308.777283,123.048958 
	C274.478455,143.237946 240.193909,163.451279 205.883865,183.621201 
	C199.739471,187.233322 196.826752,192.284531 196.841125,199.610703 
	C196.983017,271.932251 197.024551,344.254272 196.881683,416.575714 
	C196.864273,425.386627 200.200684,431.060059 207.867783,435.545593 
	C272.278107,473.228210 336.543243,511.159241 400.803040,549.098511 
	C407.767456,553.210327 414.400391,553.693481 421.271301,549.141235 
	C424.323517,547.119019 427.522125,545.314941 430.679321,543.454285 
	C492.530396,507.002991 554.371887,470.535461 616.260498,434.148010 
	C622.178772,430.668335 625.016968,425.739044 625.015747,418.996765 
	C625.014526,412.497833 625.029907,405.998932 625.037842,398.500000 
M677.557983,608.963928 
	C656.731628,585.686279 620.549194,584.366760 598.125244,599.499451 
	C568.061646,619.787720 560.621216,661.321045 581.468994,691.766418 
	C598.939880,717.280273 631.087891,725.177307 657.461975,713.395386 
	C696.827332,695.809998 707.394531,641.305176 677.557983,608.963928 
M332.497864,591.907043 
	C331.498077,591.906433 330.498322,591.904175 329.498535,591.905579 
	C320.223328,591.918518 320.211365,591.918701 320.206238,601.179932 
	C320.193695,623.838745 320.296082,646.498169 320.150482,669.156067 
	C320.059479,683.315674 314.659729,691.009827 301.138763,694.820801 
	C285.243683,699.300903 268.085815,690.496704 268.041595,671.464417 
	C268.025360,664.466858 268.026215,657.469299 268.024261,650.471741 
	C268.019318,632.977844 267.947174,615.483398 268.062683,597.990295 
	C268.092072,593.537842 266.485443,591.507935 261.872070,591.880737 
	C258.727417,592.134827 255.544937,591.919312 252.379364,591.916687 
	C243.405762,591.909241 243.389557,591.909851 243.382690,600.661011 
	C243.363892,624.652466 243.239471,648.644714 243.390457,672.635193 
	C243.500366,690.097900 251.656143,703.128052 266.621033,711.733398 
	C277.283081,717.864502 288.821259,719.409485 301.183105,718.344666 
	C325.475433,716.252258 344.814972,696.406067 344.940857,672.117859 
	C345.059143,649.293030 345.000305,626.467163 344.976257,603.641785 
	C344.963501,591.571594 346.434540,591.846619 332.497864,591.907043 
M433.453308,614.683838 
	C435.451813,614.697876 437.457306,614.610413 439.447357,614.747192 
	C443.533264,615.027954 445.717926,613.651489 445.373871,609.109863 
	C445.085266,605.300781 445.067017,601.440430 445.322266,597.629150 
	C445.610840,593.320862 444.045654,591.795959 439.622223,591.829956 
	C416.639984,592.006287 393.655029,592.005371 370.672577,591.840637 
	C365.869171,591.806274 364.064514,593.754639 364.066132,598.315063 
	C364.079376,635.121887 364.006836,671.928711 364.036041,708.735535 
	C364.041138,715.167969 365.134735,716.079346 371.767944,716.084473 
	C391.420563,716.099609 411.073151,716.085388 430.725769,716.089539 
	C445.697968,716.092712 445.697937,716.097412 445.302887,701.229675 
	C445.099640,693.581543 444.671539,693.103882 436.952789,693.063904 
	C422.796844,692.990479 408.639404,692.884888 394.485107,693.033264 
	C390.512177,693.074829 388.692230,691.988708 388.886841,687.721558 
	C389.152161,681.904358 389.077057,676.063110 388.922241,670.238159 
	C388.801086,665.679626 390.865936,664.072449 395.291870,664.159973 
	C404.614807,664.344482 413.944092,664.204895 423.270752,664.205017 
	C438.229980,664.205139 436.947693,665.852417 436.779236,649.986145 
	C436.718658,644.279358 435.278595,643.062073 429.494720,643.047241 
	C418.669220,643.019531 407.843567,643.050720 397.018005,643.030273 
	C389.399384,643.015869 389.018677,642.642212 388.953461,635.236694 
	C388.918243,631.239868 388.927032,627.242493 388.944458,623.245422 
	C388.978363,615.474304 389.721802,614.673706 397.490662,614.648376 
	C409.148804,614.610352 420.807251,614.666504 433.453308,614.683838 
M490.271301,708.822632 
	C496.798767,698.584961 503.297913,688.329041 509.867126,678.118225 
	C512.652954,673.788147 514.206238,673.805969 516.916931,678.147766 
	C522.114197,686.472473 527.304077,694.802795 532.395020,703.192749 
	C540.196411,716.049683 540.159790,716.072571 555.197693,716.072449 
	C557.863525,716.072388 560.549255,716.258240 563.187439,715.986023 
	C564.699829,715.830017 566.134827,714.924316 567.604675,714.356201 
	C567.056396,713.020508 566.708557,711.552979 565.929932,710.368774 
	C554.314880,692.704834 542.761841,674.997620 530.897034,657.502136 
	C528.082581,653.351990 528.263123,650.045654 530.921448,646.141602 
	C536.733093,637.606445 542.377136,628.956543 548.052002,620.328735 
	C552.993591,612.815857 557.928162,605.297302 562.754150,597.710205 
	C563.594543,596.388977 563.881348,594.715637 564.423889,593.204956 
	C562.748962,592.772522 561.086426,592.035339 559.396729,591.966675 
	C554.905212,591.783997 550.386902,592.115662 545.907654,591.817505 
	C541.316956,591.511963 538.453186,593.476746 536.128784,597.258667 
	C530.200195,606.904541 524.068787,616.426331 517.973267,625.968811 
	C514.417664,631.534912 513.382996,631.521545 509.920654,625.951782 
	C503.769684,616.056885 497.804626,606.040527 491.388428,596.321411 
	C490.050873,594.295288 487.187805,592.305481 484.861755,592.089783 
	C478.584473,591.507935 472.217560,591.914124 465.886414,591.883911 
	C462.142731,591.866089 460.870789,593.313416 462.872101,596.773132 
	C463.704437,598.211975 464.584900,599.627014 465.515015,601.004517 
	C475.859955,616.325562 486.163757,631.674805 496.615295,646.922791 
	C499.024231,650.437317 498.963928,653.253723 496.529907,656.869507 
	C484.821564,674.262451 473.364166,691.824707 461.881409,709.368591 
	C460.787689,711.039551 460.136047,712.999817 458.691528,716.078247 
	C465.899200,716.078247 471.842072,715.858337 477.760834,716.141907 
	C483.339111,716.409119 487.591400,714.856384 490.271301,708.822632 
M182.705658,663.636780 
	C180.986481,668.627991 179.351166,673.650818 177.486542,678.587097 
	C177.045349,679.755127 175.834015,680.632202 174.976959,681.643127 
	C174.239349,680.633850 173.181198,679.728882 172.813293,678.599243 
	C168.746368,666.111389 164.789917,653.587646 160.796982,641.075623 
	C156.249283,626.825256 151.798080,612.542419 147.039062,598.362854 
	C146.270493,596.072876 144.262299,592.633423 142.583115,592.484924 
	C135.251358,591.836670 127.829636,592.206177 119.552666,592.206177 
	C120.854874,596.615784 121.745995,600.113220 122.914780,603.515381 
	C132.415070,631.168762 141.971237,658.802917 151.501419,686.446045 
	C154.421707,694.916626 157.290146,703.405090 160.229721,711.868896 
	C161.602478,715.821289 164.405502,717.659668 168.640289,717.467407 
	C172.796509,717.278564 176.967468,717.088440 181.120300,717.233032 
	C186.329147,717.414368 188.715515,714.794006 190.342407,710.067993 
	C200.028214,681.931030 209.970490,653.882446 219.795319,625.793213 
	C223.089905,616.373901 226.280899,606.918457 229.542694,597.487610 
	C230.907669,593.541077 229.465149,591.810059 225.378311,591.886902 
	C221.048691,591.968384 216.678711,592.291809 212.395569,591.845459 
	C207.166351,591.300598 204.812241,593.831116 203.393539,598.344421 
	C196.616074,619.905640 189.755493,641.440796 182.705658,663.636780 
z"/>
<path fill="#3C4E5C" opacity="1.000000" stroke="none" 
	d="
M625.037903,399.000000 
	C625.029907,405.998932 625.014526,412.497833 625.015747,418.996765 
	C625.016968,425.739044 622.178772,430.668335 616.260498,434.148010 
	C554.371887,470.535461 492.530396,507.002991 430.679321,543.454285 
	C427.522125,545.314941 424.323517,547.119019 421.271301,549.141235 
	C414.400391,553.693481 407.767456,553.210327 400.803040,549.098511 
	C336.543243,511.159241 272.278107,473.228210 207.867783,435.545593 
	C200.200684,431.060059 196.864273,425.386627 196.881683,416.575714 
	C197.024551,344.254272 196.983017,271.932251 196.841125,199.610703 
	C196.826752,192.284531 199.739471,187.233322 205.883865,183.621201 
	C240.193909,163.451279 274.478455,143.237946 308.777283,123.048958 
	C339.206116,105.137924 369.676483,87.297104 400.050354,69.293427 
	C407.379517,64.949165 414.373779,64.796455 421.706879,69.105453 
	C471.827362,98.556717 521.969116,127.971802 572.129333,157.355377 
	C586.213074,165.605606 600.296021,173.864395 614.545959,181.820892 
	C622.059692,186.016281 625.202332,191.890381 625.176758,200.531509 
	C624.981323,266.520569 625.050781,332.510406 625.037903,399.000000 
M538.864441,190.763763 
	C537.458313,193.402023 536.160706,196.105133 534.629944,198.668991 
	C503.001953,251.642502 471.413452,304.639801 439.657623,357.536652 
	C430.248627,373.209534 420.353577,388.590668 410.125366,403.600464 
	C386.833588,364.931335 363.507019,326.283142 340.262970,287.585327 
	C326.021942,263.876221 311.950165,240.065414 297.713287,216.353790 
	C292.681061,207.972595 285.741730,207.527481 281.001160,215.243576 
	C260.506683,248.601807 240.027069,281.969757 219.750793,315.460480 
	C217.965363,318.409515 216.875504,322.267578 216.846725,325.714966 
	C216.618576,353.045258 216.904266,380.380249 216.608994,407.709229 
	C216.532059,414.829132 219.368286,419.036682 225.309830,422.524353 
	C284.069519,457.016113 342.738892,491.661865 401.396606,526.326965 
	C407.748230,530.080627 413.730347,530.192871 420.158478,526.407959 
	C463.081024,501.135162 506.087311,476.004578 549.033386,450.771545 
	C565.408081,441.150543 581.684570,431.362457 598.029968,421.691345 
	C603.067322,418.710876 605.565979,414.581573 605.371521,408.542969 
	C605.098267,400.055664 605.298889,391.553070 605.298828,383.057037 
	C605.298340,325.392761 605.211182,267.728210 605.412842,210.064636 
	C605.437012,203.152847 602.783142,198.656876 597.063538,195.438217 
	C592.419678,192.824936 587.786743,190.190231 583.194641,187.487366 
	C528.781128,155.459961 474.353271,123.456703 420.000000,91.327293 
	C413.701691,87.604240 408.115906,87.665085 401.794525,91.419640 
	C371.574738,109.368515 341.197235,127.051773 310.884491,144.844238 
	C282.006836,161.794373 253.163544,178.803268 224.245987,195.684967 
	C219.172424,198.646866 216.590683,202.454498 216.649124,208.582413 
	C216.862091,230.912766 216.708847,253.246460 216.757095,275.578796 
	C216.760712,277.252319 217.264694,278.924805 217.536087,280.597809 
	C220.241684,278.773926 221.808014,276.736511 223.134079,274.553131 
	C239.039719,248.364700 254.939072,222.172302 270.755707,195.930115 
	C272.989166,192.224472 275.695892,189.839508 280.274139,189.844574 
	C301.606354,189.868134 322.938751,189.820709 344.270905,189.747467 
	C348.314514,189.733582 351.196625,191.312103 353.280151,194.862228 
	C361.458099,208.796600 369.705383,222.691101 378.031830,236.537292 
	C387.732330,252.668365 397.515717,268.749847 407.324524,284.815308 
	C409.750916,288.789429 411.575531,288.721466 414.193512,284.621216 
	C416.702759,280.691223 419.060425,276.663849 421.459930,272.664398 
	C437.144470,246.521576 452.769287,220.342499 468.608704,194.293854 
	C469.801422,192.332336 472.494659,190.036575 474.512695,190.015320 
	C496.000946,189.788986 517.493774,189.991333 538.864441,190.763763 
z"/>
<path fill="#3C4E5C" opacity="1.000000" stroke="none" 
	d="
M677.802979,609.221985 
	C707.394531,641.305176 696.827332,695.809998 657.461975,713.395386 
	C631.087891,725.177307 598.939880,717.280273 581.468994,691.766418 
	C560.621216,661.321045 568.061646,619.787720 598.125244,599.499451 
	C620.549194,584.366760 656.731628,585.686279 677.802979,609.221985 
M667.546753,670.971069 
	C671.084351,662.048218 671.400879,652.891724 669.839172,643.509460 
	C667.383545,628.756287 656.218079,616.391724 642.208679,613.203491 
	C625.497131,609.400452 610.259521,614.908020 601.149231,627.786743 
	C594.620056,637.016663 593.476624,647.366272 593.928406,658.235535 
	C594.688416,676.520386 608.035522,692.260620 625.786377,695.519226 
	C643.483826,698.768066 659.972351,689.282776 667.546753,670.971069 
z"/>
<path fill="#3B4E5C" opacity="1.000000" stroke="none" 
	d="
M332.985107,591.906494 
	C346.434540,591.846619 344.963501,591.571594 344.976257,603.641785 
	C345.000305,626.467163 345.059143,649.293030 344.940857,672.117859 
	C344.814972,696.406067 325.475433,716.252258 301.183105,718.344666 
	C288.821259,719.409485 277.283081,717.864502 266.621033,711.733398 
	C251.656143,703.128052 243.500366,690.097900 243.390457,672.635193 
	C243.239471,648.644714 243.363892,624.652466 243.382690,600.661011 
	C243.389557,591.909851 243.405762,591.909241 252.379364,591.916687 
	C255.544937,591.919312 258.727417,592.134827 261.872070,591.880737 
	C266.485443,591.507935 268.092072,593.537842 268.062683,597.990295 
	C267.947174,615.483398 268.019318,632.977844 268.024261,650.471741 
	C268.026215,657.469299 268.025360,664.466858 268.041595,671.464417 
	C268.085815,690.496704 285.243683,699.300903 301.138763,694.820801 
	C314.659729,691.009827 320.059479,683.315674 320.150482,669.156067 
	C320.296082,646.498169 320.193695,623.838745 320.206238,601.179932 
	C320.211365,591.918701 320.223328,591.918518 329.498535,591.905579 
	C330.498322,591.904175 331.498077,591.906433 332.985107,591.906494 
z"/>
<path fill="#3C4E5C" opacity="1.000000" stroke="none" 
	d="
M432.959442,614.683228 
	C420.807251,614.666504 409.148804,614.610352 397.490662,614.648376 
	C389.721802,614.673706 388.978363,615.474304 388.944458,623.245422 
	C388.927032,627.242493 388.918243,631.239868 388.953461,635.236694 
	C389.018677,642.642212 389.399384,643.015869 397.018005,643.030273 
	C407.843567,643.050720 418.669220,643.019531 429.494720,643.047241 
	C435.278595,643.062073 436.718658,644.279358 436.779236,649.986145 
	C436.947693,665.852417 438.229980,664.205139 423.270752,664.205017 
	C413.944092,664.204895 404.614807,664.344482 395.291870,664.159973 
	C390.865936,664.072449 388.801086,665.679626 388.922241,670.238159 
	C389.077057,676.063110 389.152161,681.904358 388.886841,687.721558 
	C388.692230,691.988708 390.512177,693.074829 394.485107,693.033264 
	C408.639404,692.884888 422.796844,692.990479 436.952789,693.063904 
	C444.671539,693.103882 445.099640,693.581543 445.302887,701.229675 
	C445.697937,716.097412 445.697968,716.092712 430.725769,716.089539 
	C411.073151,716.085388 391.420563,716.099609 371.767944,716.084473 
	C365.134735,716.079346 364.041138,715.167969 364.036041,708.735535 
	C364.006836,671.928711 364.079376,635.121887 364.066132,598.315063 
	C364.064514,593.754639 365.869171,591.806274 370.672577,591.840637 
	C393.655029,592.005371 416.639984,592.006287 439.622223,591.829956 
	C444.045654,591.795959 445.610840,593.320862 445.322266,597.629150 
	C445.067017,601.440430 445.085266,605.300781 445.373871,609.109863 
	C445.717926,613.651489 443.533264,615.027954 439.447357,614.747192 
	C437.457306,614.610413 435.451813,614.697876 432.959442,614.683228 
z"/>
<path fill="#3B4E5C" opacity="1.000000" stroke="none" 
	d="
M490.048431,709.113037 
	C487.591400,714.856384 483.339111,716.409119 477.760834,716.141907 
	C471.842072,715.858337 465.899200,716.078247 458.691528,716.078247 
	C460.136047,712.999817 460.787689,711.039551 461.881409,709.368591 
	C473.364166,691.824707 484.821564,674.262451 496.529907,656.869507 
	C498.963928,653.253723 499.024231,650.437317 496.615295,646.922791 
	C486.163757,631.674805 475.859955,616.325562 465.515015,601.004517 
	C464.584900,599.627014 463.704437,598.211975 462.872101,596.773132 
	C460.870789,593.313416 462.142731,591.866089 465.886414,591.883911 
	C472.217560,591.914124 478.584473,591.507935 484.861755,592.089783 
	C487.187805,592.305481 490.050873,594.295288 491.388428,596.321411 
	C497.804626,606.040527 503.769684,616.056885 509.920654,625.951782 
	C513.382996,631.521545 514.417664,631.534912 517.973267,625.968811 
	C524.068787,616.426331 530.200195,606.904541 536.128784,597.258667 
	C538.453186,593.476746 541.316956,591.511963 545.907654,591.817505 
	C550.386902,592.115662 554.905212,591.783997 559.396729,591.966675 
	C561.086426,592.035339 562.748962,592.772522 564.423889,593.204956 
	C563.881348,594.715637 563.594543,596.388977 562.754150,597.710205 
	C557.928162,605.297302 552.993591,612.815857 548.052002,620.328735 
	C542.377136,628.956543 536.733093,637.606445 530.921448,646.141602 
	C528.263123,650.045654 528.082581,653.351990 530.897034,657.502136 
	C542.761841,674.997620 554.314880,692.704834 565.929932,710.368774 
	C566.708557,711.552979 567.056396,713.020508 567.604675,714.356201 
	C566.134827,714.924316 564.699829,715.830017 563.187439,715.986023 
	C560.549255,716.258240 557.863525,716.072388 555.197693,716.072449 
	C540.159790,716.072571 540.196411,716.049683 532.395020,703.192749 
	C527.304077,694.802795 522.114197,686.472473 516.916931,678.147766 
	C514.206238,673.805969 512.652954,673.788147 509.867126,678.118225 
	C503.297913,688.329041 496.798767,698.584961 490.048431,709.113037 
z"/>
<path fill="#3B4E5C" opacity="1.000000" stroke="none" 
	d="
M182.815063,663.310974 
	C189.755493,641.440796 196.616074,619.905640 203.393539,598.344421 
	C204.812241,593.831116 207.166351,591.300598 212.395569,591.845459 
	C216.678711,592.291809 221.048691,591.968384 225.378311,591.886902 
	C229.465149,591.810059 230.907669,593.541077 229.542694,597.487610 
	C226.280899,606.918457 223.089905,616.373901 219.795319,625.793213 
	C209.970490,653.882446 200.028214,681.931030 190.342407,710.067993 
	C188.715515,714.794006 186.329147,717.414368 181.120300,717.233032 
	C176.967468,717.088440 172.796509,717.278564 168.640289,717.467407 
	C164.405502,717.659668 161.602478,715.821289 160.229721,711.868896 
	C157.290146,703.405090 154.421707,694.916626 151.501419,686.446045 
	C141.971237,658.802917 132.415070,631.168762 122.914780,603.515381 
	C121.745995,600.113220 120.854874,596.615784 119.552666,592.206177 
	C127.829636,592.206177 135.251358,591.836670 142.583115,592.484924 
	C144.262299,592.633423 146.270493,596.072876 147.039062,598.362854 
	C151.798080,612.542419 156.249283,626.825256 160.796982,641.075623 
	C164.789917,653.587646 168.746368,666.111389 172.813293,678.599243 
	C173.181198,679.728882 174.239349,680.633850 174.976959,681.643127 
	C175.834015,680.632202 177.045349,679.755127 177.486542,678.587097 
	C179.351166,673.650818 180.986481,668.627991 182.815063,663.310974 
z"/>
<path fill="#010101" opacity="1.000000" stroke="none" 
	d="
M538.985291,190.075851 
	C517.493774,189.991333 496.000946,189.788986 474.512695,190.015320 
	C472.494659,190.036575 469.801422,192.332336 468.608704,194.293854 
	C452.769287,220.342499 437.144470,246.521576 421.459930,272.664398 
	C419.060425,276.663849 416.702759,280.691223 414.193512,284.621216 
	C411.575531,288.721466 409.750916,288.789429 407.324524,284.815308 
	C397.515717,268.749847 387.732330,252.668365 378.031830,236.537292 
	C369.705383,222.691101 361.458099,208.796600 353.280151,194.862228 
	C351.196625,191.312103 348.314514,189.733582 344.270905,189.747467 
	C322.938751,189.820709 301.606354,189.868134 280.274139,189.844574 
	C275.695892,189.839508 272.989166,192.224472 270.755707,195.930115 
	C254.939072,222.172302 239.039719,248.364700 223.134079,274.553131 
	C221.808014,276.736511 220.241684,278.773926 217.536087,280.597809 
	C217.264694,278.924805 216.760712,277.252319 216.757095,275.578796 
	C216.708847,253.246460 216.862091,230.912766 216.649124,208.582413 
	C216.590683,202.454498 219.172424,198.646866 224.245987,195.684967 
	C253.163544,178.803268 282.006836,161.794373 310.884491,144.844238 
	C341.197235,127.051773 371.574738,109.368515 401.794525,91.419640 
	C408.115906,87.665085 413.701691,87.604240 420.000000,91.327293 
	C474.353271,123.456703 528.781128,155.459961 583.194641,187.487366 
	C587.786743,190.190231 592.419678,192.824936 597.063538,195.438217 
	C602.783142,198.656876 605.437012,203.152847 605.412842,210.064636 
	C605.211182,267.728210 605.298340,325.392761 605.298828,383.057037 
	C605.298889,391.553070 605.098267,400.055664 605.371521,408.542969 
	C605.565979,414.581573 603.067322,418.710876 598.029968,421.691345 
	C581.684570,431.362457 565.408081,441.150543 549.033386,450.771545 
	C506.087311,476.004578 463.081024,501.135162 420.158478,526.407959 
	C413.730347,530.192871 407.748230,530.080627 401.396606,526.326965 
	C342.738892,491.661865 284.069519,457.016113 225.309830,422.524353 
	C219.368286,419.036682 216.532059,414.829132 216.608994,407.709229 
	C216.904266,380.380249 216.618576,353.045258 216.846725,325.714966 
	C216.875504,322.267578 217.965363,318.409515 219.750793,315.460480 
	C240.027069,281.969757 260.506683,248.601807 281.001160,215.243576 
	C285.741730,207.527481 292.681061,207.972595 297.713287,216.353790 
	C311.950165,240.065414 326.021942,263.876221 340.262970,287.585327 
	C363.507019,326.283142 386.833588,364.931335 410.323792,404.235718 
	C409.402039,407.079193 408.292786,409.293060 407.159363,411.494476 
	C405.153564,415.390228 403.180756,414.957428 401.217865,411.445892 
	C400.731873,410.576447 400.160309,409.755249 399.641083,408.903931 
	C378.493378,374.229279 357.301117,339.581573 336.266815,304.838257 
	C333.986176,301.071259 331.158173,299.559082 326.911499,299.619446 
	C316.248749,299.771027 305.580719,299.606171 294.920349,299.831085 
	C292.064453,299.891357 289.228455,300.895416 286.383331,301.466187 
	C287.338104,304.344757 287.793213,307.525330 289.322968,310.056366 
	C310.422363,344.965393 331.744415,379.739807 352.854950,414.642151 
	C367.669220,439.134796 382.230103,463.780579 396.935852,488.339020 
	C401.165131,495.401855 404.112946,495.507233 408.246460,488.628754 
	C426.497772,458.257111 444.726013,427.871429 462.883423,397.443573 
	C491.628265,349.273529 520.336731,301.081726 549.004211,252.865631 
	C559.636597,234.982956 570.218201,217.068039 580.589417,199.033463 
	C583.662598,193.689499 581.906311,189.789124 575.834961,189.600418 
	C563.568481,189.219177 551.270386,189.857834 538.985291,190.075851 
z"/>
<path fill="#45BC91" opacity="1.000000" stroke="none" 
	d="
M538.924866,190.419800 
	C551.270386,189.857834 563.568481,189.219177 575.834961,189.600418 
	C581.906311,189.789124 583.662598,193.689499 580.589417,199.033463 
	C570.218201,217.068039 559.636597,234.982956 549.004211,252.865631 
	C520.336731,301.081726 491.628265,349.273529 462.883423,397.443573 
	C444.726013,427.871429 426.497772,458.257111 408.246460,488.628754 
	C404.112946,495.507233 401.165131,495.401855 396.935852,488.339020 
	C382.230103,463.780579 367.669220,439.134796 352.854950,414.642151 
	C331.744415,379.739807 310.422363,344.965393 289.322968,310.056366 
	C287.793213,307.525330 287.338104,304.344757 286.383331,301.466187 
	C289.228455,300.895416 292.064453,299.891357 294.920349,299.831085 
	C305.580719,299.606171 316.248749,299.771027 326.911499,299.619446 
	C331.158173,299.559082 333.986176,301.071259 336.266815,304.838257 
	C357.301117,339.581573 378.493378,374.229279 399.641083,408.903931 
	C400.160309,409.755249 400.731873,410.576447 401.217865,411.445892 
	C403.180756,414.957428 405.153564,415.390228 407.159363,411.494476 
	C408.292786,409.293060 409.402039,407.079193 410.601746,404.488220 
	C420.353577,388.590668 430.248627,373.209534 439.657623,357.536652 
	C471.413452,304.639801 503.001953,251.642502 534.629944,198.668991 
	C536.160706,196.105133 537.458313,193.402023 538.924866,190.419800 
z"/>
<path fill="#010102" opacity="1.000000" stroke="none" 
	d="
M667.387268,671.325134 
	C659.972351,689.282776 643.483826,698.768066 625.786377,695.519226 
	C608.035522,692.260620 594.688416,676.520386 593.928406,658.235535 
	C593.476624,647.366272 594.620056,637.016663 601.149231,627.786743 
	C610.259521,614.908020 625.497131,609.400452 642.208679,613.203491 
	C656.218079,616.391724 667.383545,628.756287 669.839172,643.509460 
	C671.400879,652.891724 671.084351,662.048218 667.387268,671.325134 
z"/>
</svg>